<?xml version="1.0" encoding="UTF-8" standalone="no"?>
<svg
   version="1.2"
   viewBox="0 0 1544 566"
   width="1544"
   height="566"
   id="svg14"
   sodipodi:docname="logo_finance_gray.svg"
   inkscape:version="1.4 (86a8ad7, 2024-10-11)"
   xmlns:inkscape="http://www.inkscape.org/namespaces/inkscape"
   xmlns:sodipodi="http://sodipodi.sourceforge.net/DTD/sodipodi-0.dtd"
   xmlns="http://www.w3.org/2000/svg"
   xmlns:svg="http://www.w3.org/2000/svg"
   xmlns:rdf="http://www.w3.org/1999/02/22-rdf-syntax-ns#"
   xmlns:cc="http://creativecommons.org/ns#"
   xmlns:dc="http://purl.org/dc/elements/1.1/">
  <defs
     id="defs14" />
  <sodipodi:namedview
     id="namedview14"
     pagecolor="#ffffff"
     bordercolor="#000000"
     borderopacity="0.25"
     inkscape:showpageshadow="2"
     inkscape:pageopacity="0.0"
     inkscape:pagecheckerboard="0"
     inkscape:deskcolor="#d1d1d1"
     inkscape:zoom="0.81198207"
     inkscape:cx="722.30659"
     inkscape:cy="206.28534"
     inkscape:window-width="1920"
     inkscape:window-height="1001"
     inkscape:window-x="-9"
     inkscape:window-y="-9"
     inkscape:window-maximized="1"
     inkscape:current-layer="svg14" />
  <title
     id="title1">Yahoo-Finance (1)-svg</title>
  <style
     id="style1">
		.s0 { fill: #39007d } 
		.s1 { fill: #7e1fff } 
	</style>
  <g
     id="#39007dff">
    <path
       id="Layer"
       class="s0"
       d="m553.7 0h83q0 63.8 0 127.6c5.3-6.6 11.6-12.5 18.8-17 14.9-9.5 33-12.7 50.4-11.4 11.3 0.8 22.5 3.7 32.5 9.1 9.7 5.2 18 12.8 24.3 21.8 12.3 17.6 16.9 39.4 17.1 60.6q0 75 0 150.1-41.7 0-83.4 0c0-43.4 0-86.7 0-130.1-0.2-9-1.9-18.7-7.7-25.9-4.2-5.3-10.8-8.3-17.5-8.8-8.3-0.9-17.1 1.3-23.2 7.2-7.3 7.1-10.2 17.6-10.8 27.5-0.2 7.5 0 15-0.1 22.5q0 53.8 0 107.6-41.7 0-83.4 0 0-170.4 0-340.8z"
       style="fill:#b380ff" />
    <path
       id="path1"
       class="s0"
       d="m1445.1 0h98.9v0.1c-29.5 71.3-59 142.6-88.5 213.9q-49.5 0-98.9 0c29.5-71.3 59-142.7 88.5-214z"
       style="fill:#b380ff" />
    <path
       id="path2"
       fill-rule="evenodd"
       class="s0"
       d="m368.9 99.7c20.6-2.5 42.3 1 60 12.2 6.3 4 12 8.9 16.5 14.8q0-11 0-22.1 40.3 0 80.6 0 0 118.1 0 236.1c-26.9 0.1-53.7 0.1-80.6 0.1q0-11.1 0-22.1c-6.5 8.8-15.5 15.6-25.4 20.2-20 9.2-43.1 9.9-64.3 4.8-19.6-4.7-37.6-15.3-51.5-29.8-15.5-16-26.1-36.6-31.1-58.2-5.9-25.2-5-52.1 3.4-76.6 7.2-21.3 20-40.9 37.3-55.3 15.6-13.1 34.9-21.7 55.1-24.1zm23.5 75.1c-8.8 1.1-17.4 4.5-24.4 10-6.8 5.4-12.1 12.7-15.1 20.8-4.7 12.9-3.9 27.8 2.4 40.1 4.4 8.4 11.3 15.4 19.6 19.8 16.3 8.9 37.7 7.8 52.8-3.3 8-5.8 14-14.1 17.1-23.5 4.1-12.5 3.2-26.6-2.8-38.4-4.6-8.9-12.1-16.4-21.2-20.8-8.7-4.4-18.8-5.9-28.4-4.7z"
       style="fill:#b380ff" />
    <path
       id="path3"
       fill-rule="evenodd"
       class="s0"
       d="m910.7 99.5c22.9-2 46.3 1.4 67.3 10.8 19.7 8.7 37 22.8 49.4 40.4 11.9 17 19.2 37 21.4 57.6 2.6 23.9-1.1 48.6-11.7 70.3-9.2 19.1-23.7 35.6-41.4 47.2-16.6 11-35.8 17.8-55.5 20.1-24.8 2.9-50.4-0.5-73.1-11.1-18.9-8.7-35.5-22.4-47.5-39.4-11.7-16.5-19-36.1-21.4-56.2-2.8-23.1 0.3-47 9.8-68.3 8.4-19.1 22-35.8 38.9-48 18.6-13.5 41-21.4 63.8-23.4zm5.4 76.4c-14.2 1.9-27.3 10.9-34 23.6-6.5 12.1-7.5 27-3 40 3.1 8.8 8.8 16.6 16.3 22.1 15.5 11.4 38.2 11.9 54.3 1.2 7.8-5.2 13.9-12.9 17.3-21.6 5.1-12.9 4.5-28-1.7-40.4-4.1-8.4-10.9-15.4-19.1-19.8-9.1-5-19.9-6.6-30.1-5.1z"
       style="fill:#b380ff" />
    <path
       id="path4"
       fill-rule="evenodd"
       class="s0"
       d="m1177.8 99.5c23.3-2 47.2 1.7 68.4 11.6 19.3 8.8 36.1 22.9 48.2 40.4 11.7 16.8 18.8 36.7 21 57.1 2.5 23.6-1.2 47.9-11.4 69.3-9.1 19.1-23.5 35.7-41.1 47.5-17.6 11.9-38.3 18.9-59.4 20.8-23.4 2.3-47.6-1.2-69.1-11-19.5-8.9-36.6-23-48.8-40.5-11.6-16.7-18.8-36.4-21.1-56.6-2.5-22.9 0.7-46.6 10.2-67.6 8.6-19.3 22.5-36.2 39.7-48.3 18.6-13.2 40.8-20.9 63.4-22.7zm4.8 76.4c-14.7 1.9-28.1 11.5-34.6 24.9-6.2 12.3-6.8 27.1-1.9 40 3.3 8.6 9.1 16.2 16.7 21.5 15.7 10.8 37.9 10.9 53.7 0.3 7.8-5.2 13.8-13 17.2-21.7 4.9-12.9 4.3-27.9-1.9-40.2-4.2-8.4-10.9-15.4-19.1-19.8-9.2-4.9-19.9-6.5-30.1-5z"
       style="fill:#b380ff" />
    <path
       id="path5"
       class="s0"
       d="m0 104.6q45.2 0 90.4 0c18.1 46.2 36.1 92.3 54.2 138.5 18.2-46.2 36.3-92.3 54.6-138.5 29.3 0 58.7 0 88.1 0q-67.1 161.9-134.3 323.8-44.2 0-88.5 0 18.1-42.9 36.2-85.8-50.3-118.9-100.7-237.9z"
       style="fill:#b380ff" />
    <path
       id="path6"
       class="s0"
       d="m1374.8 235.2c11.7-1.6 23.9 0.4 34.3 6.1 14.3 7.7 24.5 22.5 26.9 38.6 3 18.7-3.9 38.7-18.1 51.2-14 12.6-34.6 16.9-52.6 11.8-15.7-4.3-28.9-16.3-34.9-31.4-7.2-17.7-4.4-38.9 7.1-54.2 8.7-12 22.5-20.2 37.3-22.1z"
       style="fill:#b380ff" />
  </g>
  <g
     id="#7e1fffff">
    <path
       id="path7"
       class="s1"
       d="m689.8 362.4c11.6-2.2 24.2 4.1 29.4 14.8 5 9.5 3.1 21.9-4.1 29.7-7.7 8.8-21.3 11.8-31.9 6.8-10.2-4.5-17.1-15.7-16-26.9 0.9-12 10.8-22.5 22.6-24.4z"
       style="fill:#c6afe9" />
    <path
       id="path8"
       class="s1"
       d="m588.9 378c10-9.5 23.8-14 37.4-14.8 9.7-0.5 19.8 0.3 28.8 4.4q0 20.2 0 40.5c-6.1-2.8-13.1-3.9-19.7-2.8-5 0.9-9.7 3.7-12.2 8.1-2.7 4.5-3 9.9-2.8 15q16.4 0 32.9 0 0 19.7 0 39.4-16.5 0-32.9 0 0 47.2 0 94.5-24.4 0-48.8 0 0-47.3 0-94.5-8.9 0-17.9 0 0-19.7 0-39.4 9 0 17.9 0c-0.1-7.6 0.3-15.3 2.1-22.8 2.4-10.3 7.4-20.3 15.2-27.6z"
       style="fill:#c6afe9" />
    <path
       id="path9"
       class="s1"
       d="m813.1 426c9.8-2.3 20.5-1.7 30 1.9 8.9 3.4 16.5 10.2 21 18.6 5.5 9.9 7.3 21.4 7.1 32.7q0 41.5 0 83.1-24.5 0-48.9 0 0-36.4 0-72.8c-0.1-5.3-1.1-10.8-4.4-15-6.1-7.5-19.3-7.1-25 0.7-3.4 4.4-4.5 10.1-4.5 15.5q0 35.8 0 71.6-24.6 0-49.1 0 0-67 0-133.9 24.5 0 49 0 0.1 7.7 0.1 15.4c5.4-8.9 14.5-15.5 24.7-17.8z"
       style="fill:#c6afe9" />
    <path
       id="path10"
       fill-rule="evenodd"
       class="s1"
       d="m931.4 426.8c10.7-2.9 22.3-3 32.9 0.4 8.6 2.7 16.6 7.9 21.9 15.3q0-7.1 0-14.1 24.1 0 48.2 0 0 66.9 0 133.9-24.1 0-48.2 0 0-7.1 0-14.1c-8.3 11.2-22.2 17.1-35.9 17.8h-5.7c-10.4-0.5-20.8-3.7-29.6-9.4-15.2-9.8-25.2-26.5-28.7-44.1-4.6-22.7 0-48 15.1-66.1 7.7-9.3 18.3-16.4 30-19.6zm23.6 41.9c-3.5 0.7-6.9 2-10 3.9-8.5 5.2-13.5 15.4-12.4 25.3 0.8 10 7.9 19.1 17.3 22.6 10.7 4.2 24.1 1.1 31.4-7.9 7.6-8.8 8.3-22.6 1.8-32.1-5.9-9.2-17.5-13.8-28.1-11.8z"
       style="fill:#c6afe9" />
    <path
       id="path11"
       class="s1"
       d="m1127.9 426.1c10-2.4 20.7-1.9 30.3 1.7 9.1 3.4 16.7 10.3 21.4 18.8 5.4 9.9 7.1 21.4 7 32.6q0 41.5 0 83.1-24.5 0-49 0 0-36.7 0-73.4c-0.1-6.1-1.7-12.8-6.7-16.7-6.7-5-17.4-4-22.6 2.8-3.7 4.8-4.7 11-4.6 16.9q0 35.2 0 70.4-24.5 0-49 0 0-67 0-133.9 24.5 0 49 0 0 7.7 0 15.4c5.3-8.8 14.2-15.3 24.2-17.7z"
       style="fill:#c6afe9" />
    <path
       id="path12"
       class="s1"
       d="m1240.8 430.9c19.8-8.4 43.2-8.5 62.7 0.7q0 22.2 0 44.5c-8.7-5.8-19.3-8.6-29.6-7.2-7.7 1.1-15.2 4.8-19.7 11.2-6.9 9.6-6.3 24 1.8 32.8 5 5.5 12.4 8.4 19.8 9 9.8 0.9 19.7-2.1 27.7-7.9q0 22.3 0 44.5c-9.4 4.8-19.9 7.2-30.4 7.5h-4.8c-8.7-0.4-17.5-1.9-25.7-5.1-10.9-4.2-20.8-11.2-28-20.5-6.5-8.1-10.8-17.8-12.9-27.9-4.4-20.7-0.9-43.6 12.2-60.7 6.9-9.2 16.3-16.4 26.9-20.9z"
       style="fill:#c6afe9" />
    <path
       id="path13"
       fill-rule="evenodd"
       class="s1"
       d="m1339.5 439.2c16.6-12.9 38.9-17.1 59.3-13.1 15.9 2.9 30.9 11.8 40.3 25 11.8 16.1 15.4 37 13.3 56.6q-46.1 0-92.3 0c0.5 6 3.6 11.7 8.4 15.3 6.8 5.1 16.1 6 24.3 3.9 5.6-1.5 10.2-5.4 13.6-9.9q20.9 8 41.8 16.1c-6.6 11.2-16.6 20.4-28.4 25.8-10.2 4.7-21.5 6.7-32.7 7.1h-6.4c-17-0.6-34.2-5.8-46.9-17.4-8.4-7.6-14.5-17.7-17.8-28.5-3.3-10.9-4.2-22.5-2.9-33.7 2-18.5 11.6-36 26.4-47.2zm29.9 26.2c-5.1 3-8.4 8.5-9 14.4q22.6 0 45.2 0c-0.6-6.6-4.7-12.7-10.6-15.5-8-3.9-18-3.6-25.6 1.1z"
       style="fill:#c6afe9" />
    <path
       id="path14"
       class="s1"
       d="m670.1 428.4q24.5 0 48.9 0 0.1 66.9 0 133.9-24.4 0-48.9 0 0-67 0-133.9z"
       style="fill:#c6afe9" />
  </g>
  <metadata
     id="metadata14">
    <rdf:RDF>
      <cc:Work
         rdf:about="">
        <dc:title>Yahoo-Finance (1)-svg</dc:title>
      </cc:Work>
    </rdf:RDF>
  </metadata>
</svg>
